<?xml version="1.0" encoding="UTF-8"?>
<svg id="_레이어_2" data-name="레이어 2" xmlns="http://www.w3.org/2000/svg" viewBox="0 0 590.92 360.94">
  <g id="_레이어_1-2" data-name="레이어 1">
    <g>
      <path d="m151.73,307.55c-11.17,0-24.83-3.72-40.96-11.17-16.14-7.45-32.12-16.9-47.94-28.39-15.82-11.48-29.64-23.41-41.42-35.84-11.8-12.41-18.94-23.27-21.41-32.58,21.09-9.31,42.82-21.88,65.16-37.7,22.34-15.82,43.43-33.35,63.3-52.59,19.85-19.23,36.61-38.16,50.26-56.78,1.86,1.25,3.56,4.51,5.12,9.77,1.54,5.28,2.33,10.09,2.33,14.43,0,12.42-4.97,24.99-14.89,37.7-9.93,12.73-22.81,24.99-38.63,36.77-15.82,11.8-32.74,22.81-50.73,33.04-18,10.24-34.76,19.4-50.27,27.46,13.64,9.31,26.53,17.85,38.63,25.6,12.1,7.77,26.84,15.68,44.21,23.74,17.37,8.07,40.33,17.68,68.88,28.85-3.73,3.72-8.23,7.61-13.5,11.64-5.28,4.04-11.33,6.05-18.15,6.05Z"/>
      <path d="m186.48,360.94c5.73-5.73,12.28-14.87,19.64-27.42,7.37-12.55,15.28-27.42,23.73-44.61,8.45-17.19,17.12-35.74,25.99-55.65,8.86-19.91,17.6-40.17,26.19-60.77,8.59-20.6,16.78-40.65,24.55-60.16,7.78-19.5,14.87-37.3,21.28-53.4,6.41-16.09,11.66-29.46,15.76-40.1,1.09-2.72,3.61-5.52,7.57-8.39,3.95-2.86,8.59-5.32,13.91-7.37,5.32-2.05,10.57-3.07,15.75-3.07-1.37,3.27-4.09,9.96-8.18,20.05-4.09,10.1-9.14,22.37-15.14,36.83-6,14.46-12.62,30.28-19.85,47.47-7.23,17.19-14.53,34.72-21.89,52.59-7.37,17.87-14.6,35.06-21.69,51.56-7.1,16.51-13.44,31.45-19.03,44.81-5.59,13.37-10.03,24.01-13.3,31.92-10.1,24.28-22.03,42.97-35.81,56.06-13.77,13.1-26.94,19.64-39.49,19.64Z"/>
      <path d="m440.13,313.95c-6.83,0-12.89-2.01-18.15-6.05-5.28-4.03-9.77-7.91-13.5-11.64,29.16-11.17,52.13-20.78,68.88-28.85,16.76-8.06,31.33-15.97,43.75-23.74,12.41-7.75,25.13-16.29,38.16-25.6-16.14-8.06-33.2-17.22-51.2-27.46-18.01-10.24-35.07-21.25-51.19-33.04-16.14-11.78-29.18-24.04-39.09-36.77-9.93-12.71-14.89-25.28-14.89-37.7,0-3.72.61-7.91,1.86-12.57,1.24-4.65,2.79-8.22,4.65-10.7,13.03,17.38,29.63,35.69,49.8,54.92,20.16,19.24,41.72,36.93,64.69,53.06,22.95,16.14,45.29,28.55,67.02,37.23-2.49,9.93-9.47,21.1-20.94,33.51-11.49,12.42-25.13,24.36-40.96,35.84-15.82,11.49-31.65,20.94-47.47,28.39-15.82,7.45-29.64,11.17-41.42,11.17Z"/>
    </g>
  </g>
</svg>