<?xml version="1.0" encoding="UTF-8"?>
<svg id="_레이어_2" data-name="레이어 2" xmlns="http://www.w3.org/2000/svg" viewBox="0 0 1160 262">
 
  <g id="_레이어_1-2" data-name="레이어 1">
    <g>
      <g>
        <path class="cls-2" d="m35.61,252.65L6.21,9.65h45.6l12.78,126.91c.13,1.27,1.97,1.31,2.15.04L84.51,9.95h35.7l17.56,128.39c.23,1.71,2.72,1.67,2.9-.05l13.44-128.64h45l-29.1,243h-46.8l-20.7-146.7-19.5,146.7h-47.4Z"/>
        <path class="cls-2" d="m225.21,252.65V9.65h109.2v36.6h-55.5v60.3h42.3v37.2h-42.3v72.6h56.1v36.3h-109.8Z"/>
        <path class="cls-2" d="m359.31,252.65V9.65h53.7v206.7h55.8v36.3h-109.5Z"/>
        <path class="cls-2" d="m557.91,256.25c-18.4,0-32.95-3.35-43.65-10.05-10.7-6.7-18.25-16.1-22.65-28.2-4.4-12.1-6.6-26.35-6.6-42.75v-87.6c0-16.8,2.2-31.25,6.6-43.35,4.4-12.1,11.95-21.45,22.65-28.05,10.7-6.6,25.25-9.9,43.65-9.9s32.05,2.95,42.15,8.85c10.1,5.9,17.25,14.15,21.45,24.75,4.2,10.6,6.3,22.8,6.3,36.6v21h-52.5v-24.3c0-4.8-.25-9.4-.75-13.8-.5-4.4-1.95-8.05-4.35-10.95-2.4-2.9-6.5-4.35-12.3-4.35s-9.75,1.5-12.45,4.5c-2.7,3-4.4,6.75-5.1,11.25-.7,4.5-1.05,9.25-1.05,14.25v114.3c0,5.4.45,10.35,1.35,14.85s2.7,8.1,5.4,10.8,6.65,4.05,11.85,4.05c5.6,0,9.6-1.45,12-4.35,2.4-2.9,3.9-6.65,4.5-11.25.6-4.6.9-9.3.9-14.1v-25.5h52.5v21c0,13.8-2.05,26.15-6.15,37.05-4.1,10.9-11.2,19.5-21.3,25.8-10.1,6.3-24.25,9.45-42.45,9.45Z"/>
        <path class="cls-2" d="m726.81,256.25c-18.2,0-32.6-3.2-43.2-9.6-10.6-6.4-18.2-15.6-22.8-27.6-4.6-12-6.9-26.3-6.9-42.9v-90.3c0-16.8,2.3-31.1,6.9-42.9,4.6-11.8,12.2-20.85,22.8-27.15,10.6-6.3,25-9.45,43.2-9.45s32.95,3.15,43.65,9.45c10.7,6.3,18.35,15.35,22.95,27.15,4.6,11.8,6.9,26.1,6.9,42.9v90.3c0,16.6-2.3,30.9-6.9,42.9-4.6,12-12.25,21.2-22.95,27.6-10.7,6.4-25.25,9.6-43.65,9.6Zm0-38.1c5.6,0,9.7-1.4,12.3-4.2,2.6-2.8,4.3-6.4,5.1-10.8.8-4.4,1.2-8.9,1.2-13.5v-117c0-4.8-.4-9.35-1.2-13.65-.8-4.3-2.5-7.85-5.1-10.65-2.6-2.8-6.7-4.2-12.3-4.2-5.2,0-9.1,1.4-11.7,4.2-2.6,2.8-4.3,6.35-5.1,10.65-.8,4.3-1.2,8.85-1.2,13.65v117c0,4.6.35,9.1,1.05,13.5.7,4.4,2.3,8,4.8,10.8,2.5,2.8,6.55,4.2,12.15,4.2Z"/>
        <path class="cls-2" d="m832.11,252.65l4.2-243h57.6l26.7,141.3,28.8-141.3h55.5l4.2,243h-38.1l-4.12-148.18c-.05-1.64-2.42-1.81-2.7-.2l-25.88,148.38h-33.9l-27.82-151.08c-.27-1.46-2.41-1.29-2.44.2l-3.33,150.88h-38.7Z"/>
        <path class="cls-2" d="m1044.21,252.65V9.65h109.2v36.6h-55.5v60.3h42.3v37.2h-42.3v72.6h56.1v36.3h-109.8Z"/>
      </g>
     
    </g>
  </g>
</svg>